<?xml version="1.0" standalone="no"?>
<!DOCTYPE svg PUBLIC "-//W3C//DTD SVG 20010904//EN"
 "http://www.w3.org/TR/2001/REC-SVG-20010904/DTD/svg10.dtd">
<svg version="1.0" xmlns="http://www.w3.org/2000/svg"
 width="512.000000pt" height="512.000000pt" viewBox="0 0 512.000000 512.000000"
 preserveAspectRatio="xMidYMid meet">
<metadata>
Created by potrace 1.14, written by Peter Selinger 2001-2017
</metadata>
<g transform="translate(0.000000,512.000000) scale(0.100000,-0.100000)"
fill="#000000" stroke="none">
<path d="M2410 4810 l0 -140 40 0 c39 0 40 1 40 33 0 18 6 42 14 53 14 18 16
16 37 -33 21 -52 22 -53 65 -53 24 0 44 3 44 6 0 3 -17 43 -39 88 l-38 83 33
44 c18 24 34 47 34 52 0 4 -16 7 -35 7 -31 0 -39 -6 -72 -57 l-38 -57 -3 57
-3 57 -39 0 -40 0 0 -140z"/>
<path d="M2792 4811 c-25 -138 -27 -161 -9 -161 6 0 22 -3 34 -6 16 -5 25 1
37 23 9 15 33 48 55 72 l39 44 -14 -64 c-20 -94 -19 -96 23 -102 20 -4 38 -5
40 -3 4 4 52 270 50 272 -1 1 -19 4 -40 8 -33 6 -38 4 -47 -16 -5 -13 -28 -43
-50 -68 l-42 -45 7 35 c20 115 20 120 -8 120 -14 0 -32 2 -39 5 -11 5 -19 -21
-36 -114z"/>
<path d="M3298 4875 c9 -49 75 -71 117 -39 16 12 17 16 6 23 -8 6 -24 5 -39
-2 -21 -10 -27 -8 -46 16 -27 34 -45 35 -38 2z"/>
<path d="M2010 4881 c-14 -4 -24 -12 -24 -17 1 -9 66 -257 69 -261 0 -1 39 9
85 22 97 28 120 49 120 107 0 28 -7 46 -26 65 -26 26 -49 27 -130 7 -18 -5
-22 1 -30 38 -9 45 -21 52 -64 39z m168 -157 c2 -16 -4 -24 -27 -32 -27 -10
-30 -8 -40 18 -11 32 -3 40 39 37 17 -1 26 -9 28 -23z"/>
<path d="M3215 4818 c-2 -7 -23 -62 -45 -123 -22 -60 -40 -113 -40 -117 0 -12
74 -32 77 -21 2 6 31 34 63 62 l59 52 -25 -67 c-13 -37 -23 -71 -22 -76 2 -6
18 -16 36 -24 25 -10 34 -11 37 -1 35 95 85 240 85 246 0 5 -14 14 -30 20 -29
10 -34 7 -88 -44 -59 -57 -79 -68 -67 -37 4 9 15 40 25 69 l18 52 -30 10 c-40
14 -48 14 -53 -1z"/>
<path d="M1730 4802 c-21 -10 -42 -32 -53 -54 -16 -33 -17 -45 -7 -92 14 -68
40 -102 89 -117 72 -22 146 23 158 95 6 38 2 41 -47 27 -15 -4 -27 -16 -30
-31 -4 -18 -14 -26 -33 -28 -23 -3 -30 2 -42 32 -29 68 -13 136 28 120 9 -3
19 -14 22 -23 5 -16 10 -16 40 -7 44 14 45 36 4 70 -36 31 -79 34 -129 8z"/>
<path d="M1422 4659 l-33 -21 26 -44 25 -43 -22 -15 c-31 -22 -33 -21 -59 22
-12 20 -24 38 -25 40 -2 3 -64 -26 -73 -34 -2 -2 29 -58 68 -124 76 -128 74
-126 125 -87 18 13 18 15 -8 59 l-26 45 24 17 c14 9 27 16 30 16 2 0 16 -20
30 -45 27 -45 27 -45 56 -30 16 8 31 19 34 24 6 8 -124 240 -134 240 -3 1 -20
-9 -38 -20z"/>
<path d="M3722 4469 c-41 -61 -72 -116 -69 -122 5 -13 55 -43 60 -36 2 2 30
41 61 87 32 45 61 82 65 82 3 0 17 -7 29 -16 l22 -15 -60 -89 c-33 -49 -60
-91 -60 -94 0 -2 14 -13 32 -24 l32 -20 77 111 c42 62 75 115 72 120 -5 8
-180 127 -185 127 -2 -1 -36 -51 -76 -111z"/>
<path d="M2543 4508 c-25 -31 -65 -123 -88 -205 -51 -175 -54 -331 -8 -523 37
-151 43 -190 43 -263 0 -132 -37 -268 -125 -462 -15 -33 -34 -76 -43 -95 -35
-78 -92 -130 -141 -130 -47 0 -89 32 -112 84 -11 28 -30 71 -41 96 -119 272
-154 360 -142 360 3 0 16 -26 30 -57 14 -32 34 -76 44 -98 10 -22 32 -70 49
-107 17 -38 38 -68 45 -68 8 0 26 14 39 30 14 17 33 30 42 30 22 0 116 28 134
39 12 8 11 19 -2 72 -15 62 -54 225 -62 263 -8 37 -48 162 -61 193 -8 17 -14
35 -14 40 0 31 -141 334 -203 438 -28 45 -87 124 -117 153 -39 39 -90 43 -153
11 -49 -26 -154 -124 -194 -182 -15 -23 -31 -44 -34 -47 -15 -13 -98 -153
-131 -220 -80 -163 -93 -246 -86 -553 l5 -232 -28 60 c-99 211 -103 430 -12
748 14 49 23 90 20 93 -8 8 -96 -90 -135 -151 -21 -33 -47 -82 -57 -110 -10
-27 -23 -56 -28 -63 -5 -7 -7 -15 -4 -19 4 -3 1 -15 -5 -26 -26 -50 -40 -157
-40 -317 0 -169 11 -234 58 -337 8 -17 14 -34 14 -37 0 -3 12 -31 26 -61 14
-31 24 -61 22 -67 -5 -14 -98 104 -137 173 -40 71 -80 179 -86 232 -3 24 -10
59 -15 77 -6 19 -10 46 -10 60 0 14 -5 43 -12 65 l-11 40 -25 -54 c-38 -82
-55 -166 -58 -291 -7 -224 61 -409 247 -670 62 -88 64 -91 42 -83 -62 23 -198
157 -223 220 -5 11 -14 24 -19 28 -6 3 -11 15 -11 26 0 10 -3 19 -8 19 -4 0
-18 28 -31 63 -13 34 -29 76 -36 92 -7 17 -17 41 -22 55 -9 23 -11 21 -22 -28
-15 -73 -14 -222 4 -312 27 -141 70 -244 150 -355 106 -149 245 -274 426 -386
l84 -51 -65 5 c-82 7 -166 36 -227 79 -112 78 -130 78 -101 1 27 -74 54 -117
109 -173 69 -70 163 -148 195 -161 135 -53 250 -90 459 -150 321 -91 506 -196
621 -353 53 -71 130 -228 168 -340 48 -140 82 -190 112 -166 8 8 53 90 98 184
122 252 206 357 376 468 69 46 89 56 173 92 37 16 148 55 174 61 10 3 70 19
133 36 63 17 123 32 133 34 56 12 211 67 283 101 129 61 248 173 307 289 46
92 46 112 -3 78 -14 -10 -26 -16 -28 -15 -1 1 -39 -15 -85 -37 -89 -44 -209
-74 -255 -65 -27 6 -23 9 57 51 317 167 527 412 595 696 18 73 36 203 36 257
0 48 -19 140 -29 140 -4 0 -12 -21 -19 -46 -45 -168 -199 -381 -330 -455 -30
-17 -55 -29 -57 -27 -2 2 16 28 40 58 140 177 226 331 260 463 33 131 35 341
4 473 -12 52 -26 94 -31 94 -15 0 -38 -66 -38 -108 0 -106 -107 -342 -210
-466 -40 -47 -75 -84 -78 -81 -3 3 2 13 10 22 18 21 71 132 87 183 43 138 56
442 25 589 -8 41 -17 78 -20 83 -3 4 -7 17 -9 29 -9 46 -114 248 -150 288 -43
47 -62 54 -42 14 28 -55 57 -235 57 -351 0 -164 -58 -439 -115 -553 -14 -27
-28 -49 -31 -49 -6 0 1 49 16 113 5 23 14 99 20 168 32 379 -79 744 -286 940
-57 53 -184 133 -184 115 0 -3 19 -37 43 -78 61 -103 156 -342 142 -356 -2 -2
1 -15 6 -29 16 -43 39 -243 39 -343 0 -92 -24 -332 -35 -350 -3 -5 -7 -21 -9
-37 -27 -207 -222 -639 -386 -856 -79 -106 -117 -153 -151 -187 -19 -19 -50
-55 -69 -80 -19 -25 -53 -65 -75 -90 -208 -233 -323 -447 -355 -655 -25 -164
-34 -185 -44 -99 -25 209 -157 397 -331 468 -73 30 -189 28 -264 -5 -28 -12
-51 -24 -52 -28 -4 -41 -10 -75 -13 -79 -12 -12 -69 34 -83 66 -28 66 -14 155
42 269 40 80 62 111 123 170 61 60 73 77 68 96 -3 13 -46 72 -96 131 -221 265
-339 533 -415 946 -15 83 -24 352 -16 490 4 83 44 278 72 350 40 105 73 160
145 239 l41 45 12 -60 c6 -32 16 -79 21 -104 6 -25 15 -74 21 -110 13 -74 8
-65 74 -161 49 -72 62 -97 130 -244 52 -114 111 -282 92 -265 -3 3 -26 58 -51
123 -25 64 -62 150 -82 190 -42 84 -123 207 -135 207 -11 0 -11 -131 0 -190 7
-33 6 -49 -5 -64 -19 -27 -18 -143 1 -189 13 -33 13 -37 -1 -45 -23 -13 -20
-211 3 -255 14 -28 14 -32 -1 -43 -16 -11 -17 -42 -16 -311 0 -164 4 -314 8
-333 l8 -35 99 -7 c55 -5 138 -5 186 -2 91 6 99 3 114 -46 31 -106 132 -253
193 -282 16 -8 37 -34 52 -63 47 -96 69 -124 110 -145 22 -11 45 -18 50 -15 5
3 0 31 -11 62 -10 31 -19 64 -19 73 0 24 38 70 58 70 51 0 147 124 192 248
l28 77 201 3 c149 2 203 6 206 15 12 33 17 116 23 386 7 277 6 294 -11 303
-15 8 -16 12 -5 25 11 14 31 250 22 262 -9 11 -56 -35 -80 -76 -53 -93 -66
-114 -71 -109 -6 6 33 82 79 148 62 92 79 142 76 217 -3 56 -6 66 -20 65 -22
-2 -21 -6 -3 47 23 64 32 189 14 189 -24 -1 -47 -24 -81 -82 -18 -31 -49 -83
-70 -116 -20 -33 -57 -109 -82 -168 -67 -157 -104 -204 -45 -56 64 157 179
371 230 425 40 43 60 88 70 154 6 37 22 106 35 151 36 121 31 134 -31 75 -49
-46 -125 -136 -125 -147 0 -3 -12 -22 -26 -43 -81 -119 -257 -552 -280 -691
-3 -15 -7 -33 -10 -41 -5 -16 -10 -43 -22 -138 -7 -50 -6 -63 5 -63 7 0 15 0
18 0 2 -1 28 -12 57 -25 l52 -24 19 47 c11 26 26 61 33 79 8 17 14 34 14 38 0
8 48 117 102 235 35 75 65 120 80 120 6 0 0 -15 -14 -32 -28 -39 -138 -264
-138 -284 0 -3 -7 -22 -16 -42 -23 -53 -30 -71 -50 -126 -18 -49 -18 -49 5
-67 13 -11 29 -19 37 -19 18 0 18 -10 -5 -62 -32 -74 -74 -123 -118 -137 -56
-19 -76 -9 -103 52 -12 28 -44 88 -70 132 -68 116 -105 194 -125 261 -25 84
-23 275 5 419 34 171 40 212 46 327 7 120 2 152 -53 303 -63 176 -91 219 -120
183z m-600 -1000 c3 -7 12 -30 21 -50 9 -21 13 -38 8 -38 -4 0 -18 23 -29 50
-12 28 -18 50 -13 50 4 0 10 -6 13 -12z m76 -174 c17 -38 6 -42 -14 -5 -8 17
-12 31 -7 31 5 0 14 -12 21 -26z m110 -14 c0 -10 -3 -8 -9 5 -12 27 -12 43 0
25 5 -8 9 -22 9 -30z m-63 -108 c-9 -8 -26 10 -26 26 1 15 2 15 15 -2 8 -11
13 -21 11 -24z m22 -51 c3 -8 -1 -12 -9 -9 -7 2 -15 10 -17 17 -3 8 1 12 9 9
7 -2 15 -10 17 -17z m1033 -92 c-5 -13 -10 -19 -10 -12 -1 15 10 45 15 40 3
-2 0 -15 -5 -28z m-514 -1 c25 -28 48 -72 62 -117 13 -41 14 -131 2 -131 -5 0
-28 -16 -51 -35 -23 -19 -51 -35 -62 -35 -11 0 -42 22 -70 49 l-51 48 17 64
c44 156 101 214 153 157z m-588 -358 c56 -47 100 -63 156 -54 l41 6 -6 -53
c-5 -48 -8 -53 -35 -61 -16 -5 -69 -6 -116 -2 l-87 6 -6 36 c-7 47 -8 162 0
162 3 0 27 -18 53 -40z m1149 -67 l3 -100 -70 -7 c-39 -4 -97 -4 -129 0 -59 6
-60 7 -66 43 -11 70 -10 74 27 67 51 -10 146 26 182 67 17 19 35 34 40 33 6
-2 11 -47 13 -103z m-418 -59 c0 -40 -2 -42 -35 -48 -39 -8 -75 0 -75 15 0 20
31 68 57 89 26 20 28 20 40 4 7 -10 13 -37 13 -60z m-310 46 c20 -20 40 -61
40 -81 0 -5 -20 -9 -44 -9 -51 0 -63 17 -51 76 7 39 25 44 55 14z m36 -218
c13 -8 24 -60 17 -79 -3 -7 -11 -13 -18 -13 -18 0 -55 48 -55 71 0 24 33 37
56 21z m226 -18 c-4 -26 -36 -68 -53 -72 -25 -5 -11 78 15 88 29 12 42 6 38
-16z"/>
<path d="M1023 4381 l-32 -29 55 -122 c30 -67 54 -125 54 -131 0 -15 12 -11
36 12 19 17 21 26 13 41 -13 25 -6 43 25 63 22 15 27 15 48 1 23 -15 26 -14
52 13 l27 29 -28 19 c-36 26 -210 133 -215 133 -1 0 -17 -14 -35 -29z m106
-127 c-15 -19 -26 -18 -32 4 -2 9 -8 26 -13 36 -7 18 -5 18 25 -3 25 -18 29
-26 20 -37z"/>
<path d="M4031 4239 l-94 -100 29 -30 30 -29 33 34 34 35 39 -32 c51 -41 101
-43 134 -3 42 48 33 79 -43 156 l-68 68 -94 -99z m135 -23 c34 -35 0 -73 -36
-41 -19 17 -19 19 -4 37 20 22 22 22 40 4z"/>
<path d="M815 4161 c-28 -12 -128 -129 -120 -141 9 -15 195 -170 204 -170 4 0
17 13 29 30 l22 30 -37 34 -38 34 22 24 c37 39 47 81 28 118 -22 43 -65 59
-110 41z m40 -100 c0 -34 -30 -51 -52 -29 -16 16 -16 19 2 38 24 27 50 22 50
-9z"/>
<path d="M4322 3989 c-78 -39 -109 -114 -76 -184 37 -79 134 -98 210 -40 86
66 78 181 -16 230 -39 20 -67 19 -118 -6z m122 -81 c21 -34 -88 -118 -126 -97
-26 14 -22 41 10 71 54 51 95 60 116 26z"/>
<path d="M541 3806 c-28 -46 -51 -88 -51 -93 0 -9 228 -148 234 -142 5 6 81
131 95 156 10 20 8 24 -18 38 l-30 15 -31 -56 c-28 -48 -34 -53 -48 -42 -10 7
-18 13 -20 14 -2 1 8 21 23 44 15 23 25 43 23 45 -2 1 -14 8 -27 15 -26 13
-27 12 -57 -42 -16 -30 -21 -32 -42 -19 -10 6 -7 19 17 60 17 28 31 53 31 55
0 2 -11 11 -24 20 -25 16 -25 16 -75 -68z"/>
<path d="M4504 3635 c-81 -49 -94 -137 -29 -202 25 -25 42 -33 68 -33 44 0 50
8 34 49 -8 22 -17 31 -28 28 -9 -2 -24 0 -33 5 -46 26 16 91 88 92 34 1 41 -2
44 -20 2 -11 -4 -26 -12 -33 -13 -11 -13 -16 1 -46 14 -28 19 -32 35 -24 22
12 48 60 48 91 0 26 -34 86 -59 105 -28 22 -111 16 -157 -12z"/>
<path d="M378 3483 l-36 -88 21 -12 c29 -16 47 -16 47 0 1 36 16 37 91 6 132
-55 118 -53 135 -13 8 20 14 37 12 39 -2 1 -45 19 -96 40 -90 37 -93 39 -87
66 5 21 2 30 -14 38 -11 6 -24 11 -29 11 -5 0 -25 -39 -44 -87z"/>
<path d="M4763 3340 c-19 -8 -21 -13 -13 -34 5 -14 6 -27 2 -29 -4 -2 -49 -17
-100 -32 l-94 -29 6 -30 c4 -17 10 -34 14 -38 4 -4 51 5 102 22 52 16 98 30
102 30 4 0 8 -10 10 -22 2 -18 9 -23 32 -21 16 1 30 4 33 7 8 8 -50 186 -61
185 -6 0 -21 -4 -33 -9z"/>
<path d="M295 3257 c-13 -36 -45 -164 -45 -178 0 -12 29 -24 123 -48 67 -17
127 -31 132 -31 6 0 22 45 36 99 l27 99 -22 6 c-38 10 -43 7 -59 -53 -14 -51
-19 -59 -37 -54 -23 6 -24 14 -10 63 11 37 7 44 -26 54 -19 6 -23 1 -34 -44
-12 -52 -16 -55 -38 -41 -11 7 -11 18 2 65 12 49 12 58 0 62 -8 2 -21 6 -29 9
-9 2 -18 -1 -20 -8z"/>
<path d="M4800 3013 c-41 -7 -99 -18 -128 -24 l-53 -11 7 -36 c4 -20 8 -38 9
-40 2 -2 64 7 139 19 l136 23 -6 35 c-8 41 -12 52 -22 50 -4 -1 -41 -8 -82
-16z"/>
<path d="M238 2880 c-21 -13 -35 -58 -42 -141 l-6 -67 117 -11 c65 -7 128 -13
140 -15 20 -3 22 2 28 80 9 109 3 132 -42 150 -34 15 -38 14 -64 -5 l-29 -21
-20 20 c-21 21 -55 25 -82 10z m70 -108 c3 -29 1 -32 -22 -32 -22 0 -26 5 -26
28 0 33 8 44 30 40 9 -2 16 -16 18 -36z m110 -9 c3 -31 1 -33 -29 -33 -28 0
-31 3 -25 23 3 12 6 28 6 35 0 8 9 12 23 10 17 -2 23 -11 25 -35z"/>
<path d="M4697 2763 l-48 -4 3 -37 3 -37 53 -3 52 -3 0 -45 c0 -37 6 -51 29
-75 33 -32 58 -36 100 -14 38 19 41 31 41 136 l0 89 -92 -2 c-51 -1 -115 -3
-141 -5z m173 -112 c0 -50 -43 -49 -52 2 -5 24 -2 27 23 27 25 0 29 -4 29 -29z"/>
<path d="M483 2083 c-18 -3 -23 -11 -23 -33 0 -31 -5 -34 -75 -44 -22 -4 -64
-11 -93 -17 l-54 -11 7 -36 c4 -21 8 -38 9 -39 1 -1 51 7 111 17 113 21 124
19 125 -20 0 -12 8 -15 35 -12 41 5 41 6 17 116 -19 82 -22 86 -59 79z"/>
<path d="M4649 1901 c-5 -14 -12 -32 -14 -38 -2 -7 1 -13 8 -13 7 -1 30 -17
52 -37 22 -20 32 -33 22 -29 -10 3 -36 9 -58 12 -41 7 -46 2 -51 -45 -3 -23 3
-26 87 -47 121 -31 123 -31 131 12 5 29 3 39 -10 46 -9 5 -28 20 -44 34 l-27
25 28 -5 c15 -3 38 -9 51 -12 21 -5 26 -1 36 31 7 20 10 38 8 39 -1 2 -49 14
-106 28 l-103 26 -10 -27z"/>
<path d="M4537 1906 c-4 -9 -2 -18 3 -21 18 -11 11 -57 -9 -62 -20 -5 -36 -31
-26 -41 13 -13 75 29 81 55 11 43 -35 107 -49 69z"/>
<path d="M374 1810 c-32 -13 -64 -59 -64 -92 0 -60 56 -128 105 -128 18 0 18
-1 4 39 -6 17 -20 36 -30 42 -23 12 -25 45 -3 53 21 8 18 12 39 -54 10 -30 21
-59 25 -63 13 -14 69 21 86 55 34 65 -28 159 -104 157 -20 0 -47 -4 -58 -9z
m100 -66 c18 -7 21 -39 5 -50 -13 -8 -29 13 -29 39 0 19 1 20 24 11z"/>
<path d="M4550 1602 c-77 -77 -27 -191 83 -192 47 0 86 25 103 67 19 45 17 87
-5 114 l-18 23 -17 -32 c-9 -18 -14 -42 -11 -55 7 -28 -19 -57 -37 -39 -7 7
-3 27 16 68 30 66 26 74 -42 74 -35 0 -49 -6 -72 -28z m58 -67 c-13 -29 -38
-33 -38 -7 0 23 8 32 31 32 16 0 17 -3 7 -25z"/>
<path d="M472 1520 c-68 -32 -125 -60 -128 -63 -9 -8 25 -67 39 -67 6 1 23 7
37 15 33 19 39 18 33 -3 -2 -10 5 -30 17 -45 38 -48 140 -33 189 29 28 36 26
60 -6 92 -15 15 -27 34 -25 42 1 8 -6 25 -16 36 l-17 22 -123 -58z m136 -62
c4 -21 -77 -64 -103 -54 -24 9 -14 28 31 53 44 26 67 26 72 1z"/>
<path d="M4407 1329 c-45 -76 -47 -82 -30 -95 25 -18 28 -18 43 10 l13 25 68
-35 c38 -19 73 -34 78 -34 10 0 46 59 39 64 -2 2 -33 20 -70 40 -62 34 -67 39
-57 59 9 17 8 23 -7 34 -10 7 -20 13 -23 13 -3 0 -28 -37 -54 -81z"/>
<path d="M647 1264 l-88 -56 25 -32 c13 -17 31 -29 38 -27 7 2 33 5 58 8 l45
5 -43 -29 -42 -30 22 -29 c12 -16 23 -31 24 -33 4 -5 184 111 184 118 0 4 -11
18 -25 33 -21 25 -27 26 -54 17 -16 -6 -42 -9 -58 -7 l-28 3 30 17 c61 35 60
33 36 67 -12 17 -25 31 -29 31 -4 0 -47 -26 -95 -56z"/>
<path d="M4287 1150 c-39 -31 -52 -81 -32 -120 39 -76 143 -92 197 -31 30 34
36 78 16 110 -11 18 -13 18 -35 4 -14 -10 -23 -25 -22 -37 3 -38 -1 -46 -21
-46 -27 0 -85 53 -75 69 4 7 16 11 26 8 13 -4 25 4 39 23 11 15 20 31 20 34 0
16 -89 5 -113 -14z"/>
<path d="M880 1095 c-10 -13 -10 -19 4 -33 9 -10 16 -21 16 -24 0 -3 -27 -27
-60 -53 l-61 -49 30 -30 30 -29 62 51 63 51 21 -19 c21 -19 22 -20 38 -3 15
17 11 23 -49 86 -35 37 -68 67 -73 67 -5 0 -14 -7 -21 -15z"/>
<path d="M4097 941 c-56 -36 -74 -88 -50 -138 19 -41 59 -63 114 -63 35 0 48
6 80 39 53 52 54 98 5 147 -28 28 -41 34 -77 34 -26 0 -56 -8 -72 -19z m80
-74 c36 -34 41 -67 9 -67 -22 0 -76 49 -76 69 0 41 20 40 67 -2z"/>
<path d="M1043 885 c-37 -16 -63 -60 -63 -106 0 -23 9 -40 35 -64 41 -40 83
-51 130 -35 100 33 100 164 -1 206 -41 17 -60 17 -101 -1z m107 -72 c0 -25
-50 -73 -77 -73 -31 0 -30 27 4 62 30 32 73 38 73 11z"/>
<path d="M3910 783 c-23 -9 -140 -84 -140 -90 0 -11 115 -162 124 -163 5 0 40
20 77 45 80 53 97 86 59 117 -16 13 -32 17 -49 13 -21 -5 -24 -4 -13 6 17 18
15 43 -6 62 -19 18 -27 19 -52 10z m6 -75 c9 -15 -27 -41 -39 -29 -13 13 -1
41 17 41 8 0 18 -5 22 -12z m41 -85 c-16 -16 -18 -16 -34 0 -17 17 -17 19 2
33 17 12 21 12 34 -1 14 -13 13 -17 -2 -32z"/>
<path d="M1241 628 c-79 -105 -83 -112 -65 -125 45 -34 52 -34 78 -1 l25 32
21 -27 c16 -20 30 -27 55 -27 56 0 125 73 125 133 0 31 -39 67 -73 67 -15 0
-26 5 -24 11 1 7 -12 20 -28 30 l-31 18 -83 -111z m157 0 c4 -22 -55 -88 -74
-81 -20 8 -18 23 12 66 26 39 56 46 62 15z"/>
<path d="M1607 631 c-16 -28 -16 -28 19 -44 45 -22 49 -22 62 8 11 23 9 26
-27 44 l-38 20 -16 -28z"/>
<path d="M3654 633 c-29 -14 -30 -16 -26 -74 2 -32 2 -59 -2 -59 -3 0 -15 19
-27 43 -12 23 -23 44 -25 46 -2 2 -21 -4 -43 -13 l-38 -18 49 -89 c27 -49 55
-89 61 -89 7 1 23 7 36 14 22 12 24 19 22 71 -3 64 7 66 33 6 l18 -39 37 15
c20 8 38 17 40 18 4 5 -92 185 -99 184 -3 0 -19 -7 -36 -16z"/>
<path d="M1547 523 c-19 -32 -42 -72 -50 -89 l-16 -31 35 -16 c19 -10 36 -17
38 -17 3 0 48 74 103 172 4 7 -49 38 -66 38 -5 0 -25 -26 -44 -57z"/>
<path d="M3321 503 l-44 -16 7 -75 c3 -41 6 -90 6 -108 0 -32 1 -33 28 -23
l29 10 -5 77 -4 77 42 -60 c23 -33 44 -61 45 -63 4 -4 85 20 85 25 0 5 -140
173 -143 172 -1 0 -22 -8 -46 -16z"/>
<path d="M1728 473 c-22 -25 -27 -45 -16 -65 6 -13 0 -25 -29 -52 l-38 -35 29
-11 c26 -10 32 -8 61 20 21 20 37 28 48 24 20 -7 20 -4 2 -46 l-14 -35 40 -13
c21 -7 41 -11 43 -9 11 13 78 181 73 185 -11 12 -138 54 -161 54 -13 0 -30 -8
-38 -17z m110 -48 c7 -6 -11 -35 -22 -35 -22 0 -39 18 -33 35 5 12 13 14 29 9
13 -3 24 -8 26 -9z"/>
<path d="M3121 441 c-17 -5 -29 -19 -39 -49 -15 -47 -26 -48 -36 -1 -5 29 -8
30 -38 24 -48 -10 -50 -14 -43 -51 3 -19 4 -34 1 -34 -3 0 -20 13 -39 30 -31
27 -37 29 -72 19 l-39 -11 47 -42 48 -41 -21 -54 c-12 -29 -19 -55 -17 -58 3
-2 20 0 38 5 29 7 35 15 47 55 16 56 29 60 38 12 8 -44 12 -47 57 -34 41 11
41 11 28 56 -13 46 -2 48 40 7 34 -34 40 -36 79 -29 l42 7 -55 57 -56 56 26
43 c27 46 23 50 -36 33z"/>
<path d="M2165 337 c-17 -105 -24 -161 -19 -168 3 -5 18 -9 34 -9 27 0 28 1
35 73 9 81 23 69 24 -20 1 -58 1 -58 53 -67 l36 -7 28 71 c15 38 29 70 32 70
4 0 -1 -42 -14 -117 -6 -33 -6 -33 34 -33 l40 0 12 73 c6 39 13 84 16 98 4 23
1 27 -27 33 -77 15 -85 11 -109 -56 -13 -35 -26 -67 -30 -71 -4 -4 -10 26 -13
68 -3 43 -7 78 -9 80 -2 1 -29 5 -60 8 l-57 5 -6 -31z"/>
<path d="M2615 345 c-50 -18 -74 -50 -75 -98 0 -31 7 -46 35 -74 34 -34 38
-35 90 -31 74 6 115 43 115 103 0 49 -22 82 -66 101 -41 17 -48 17 -99 -1z
m59 -51 c10 -9 16 -33 16 -60 0 -37 -3 -44 -20 -44 -35 0 -56 80 -28 108 15
15 13 15 32 -4z"/>
</g>
</svg>
