<svg id="Шар_1" data-name="Шар 1" xmlns="http://www.w3.org/2000/svg" viewBox="0 0 1602 369.77"><defs><style>.cls-1{fill:#cee0a9;}.cls-1,.cls-2{opacity:0.74;}.cls-2{fill:#a9c17e;}.cls-3{fill:#9fb57c;}.cls-4,.cls-5{fill:none;stroke:#97849b;stroke-miterlimit:10;stroke-width:4px;}.cls-4{opacity:0.63;}.cls-5,.cls-8{opacity:0.62;}.cls-6{fill:#394205;}.cls-7{fill:#09080c;opacity:0.9;}.cls-8{fill:#a0d14a;}.cls-9{fill:#3c5802;opacity:0.7;}.cls-10{fill:#467500;opacity:0.93;}.cls-11{fill:#4f7800;}</style></defs><path class="cls-1" d="M1599,391H0V223.1L1599,115.51Z" transform="translate(1 -21.23)"/><path class="cls-2" d="M1598,391H-1C.67,320.19-1,85.36-1,85.36l1601,167.9Z" transform="translate(1 -21.23)"/><polygon class="cls-3" points="800 147.73 280 183.37 446 232.71 973 166.24 800 147.73"/><path class="cls-4" d="M1599,93.58,19,194.32" transform="translate(1 -21.23)"/><path class="cls-5" d="M0,23,436,254.63" transform="translate(1 -21.23)"/><polygon class="cls-6" points="898 369.08 1 369.77 1 99.08 898 369.08"/><polygon class="cls-7" points="0 369.77 1601 369.77 1601 86.74 3 288.9 0 369.77"/><polygon class="cls-8" points="1602 369.77 1 369.77 0 245.04 1602 327 1602 369.77"/><polygon class="cls-9" points="0 369.77 1601 369.77 1601 249.16 0 343.04 0 369.77"/><polygon class="cls-10" points="684 369.77 0 369.77 0 234.08 684 369.77"/><polygon class="cls-11" points="901 369.77 684 369.77 424 318.37 679 303.29 901 369.77"/></svg>