<svg id="Шар_1" data-name="Шар 1" xmlns="http://www.w3.org/2000/svg" viewBox="0 0 1602.23 538.58"><defs><style>.cls-1{fill:#cee0a9;}.cls-1,.cls-2{opacity:0.74;}.cls-2{fill:#a9c17e;}.cls-3{fill:#9fb57c;}.cls-4,.cls-5{fill:none;stroke:#97849b;stroke-miterlimit:10;stroke-width:4px;}.cls-4{opacity:0.63;}.cls-5,.cls-8{opacity:0.62;}.cls-6{fill:#394205;}.cls-7{fill:#09080c;opacity:0.9;}.cls-8{fill:#a0d14a;}.cls-9{fill:#3c5802;opacity:0.7;}.cls-10{fill:#467500;opacity:0.93;}.cls-11{fill:#4f7800;}</style></defs><path class="cls-1" d="M1599,587H0V342L1599,185Z" transform="translate(1.23 -48.42)"/><path class="cls-2" d="M1598,587H-1C.67,483.67-1,141-1,141L1600,386Z" transform="translate(1.23 -48.42)"/><polygon class="cls-3" points="800.23 214.58 280.23 266.58 446.23 338.58 973.23 241.58 800.23 214.58"/><path class="cls-4" d="M1599,153,19,300" transform="translate(1.23 -48.42)"/><path class="cls-5" d="M0,50,436,388" transform="translate(1.23 -48.42)"/><polygon class="cls-6" points="898.23 537.58 1.23 538.58 1.23 143.58 898.23 537.58"/><polygon class="cls-7" points="0.23 538.58 1601.22 538.58 1601.22 125.58 3.23 420.58 0.23 538.58"/><polygon class="cls-8" points="1602.22 538.58 1.23 538.58 0.23 356.58 1602.22 476.18 1602.22 538.58"/><polygon class="cls-9" points="0.23 538.58 1601.22 538.58 1601.22 362.58 0.23 499.58 0.23 538.58"/><polygon class="cls-10" points="684.23 538.58 0.23 538.58 0.23 340.58 684.23 538.58"/><polygon class="cls-11" points="901.23 538.58 684.23 538.58 424.23 463.58 679.23 441.58 901.23 538.58"/></svg>